<?xml version="1.0" encoding="utf-8"?>
<!-- Generator: Adobe Illustrator 19.0.0, SVG Export Plug-In . SVG Version: 6.00 Build 0)  -->
<svg version="1.1" id="Layer_1" xmlns="http://www.w3.org/2000/svg" xmlns:xlink="http://www.w3.org/1999/xlink" x="0px" y="0px"
	 viewBox="0 0 24 24" style="enable-background:new 0 0 24 24;" xml:space="preserve">
<style type="text/css">
	.st0{fill:#10B9FF;}
</style>
<g>
	<g>
		<path class="st0" d="M6.4,7C5,7.2,3.9,8.5,4,9.9v0.5c0.1,1.5,1.4,2.6,2.9,2.4l1.6-0.1L8,6.9L6.4,7z"/>
		<path class="st0" d="M17.6,7L16,6.9l-0.4,4.5h-2.4C13,11,12.5,10.7,12,10.7c-0.8,0-1.5,0.7-1.5,1.5s0.7,1.5,1.5,1.5
			c0.6,0,1.2-0.4,1.4-0.9h2.4l1.3,0.1c1.5,0.1,2.8-1,2.9-2.4V10C20.1,8.5,19,7.2,17.6,7z"/>
	</g>
	<g>
		<path class="st0" d="M6.5,6h1.4C8,3.7,9.7,1.7,12,1.7s4,2,4.1,4.3h1.4c-0.1-3-2.4-5.7-5.5-5.7C8.9,0.2,6.5,2.9,6.5,6z"/>
	</g>
	<g>
		<path class="st0" d="M12,14c-5,0-8.8,4.3-8.8,9.2V24h17.6v-0.8C20.8,18.3,17,14,12,14z M14.8,22.2h-4.4c-0.2,0-0.5-0.1-0.6-0.4
			c-0.1-0.2-0.1-0.5,0.1-0.7l2.9-3.3h-3v-1.2h4.4c0.2,0,0.5,0.1,0.6,0.4c0.1,0.2,0.1,0.5-0.1,0.7L11.8,21h3V22.2z"/>
	</g>
</g>
</svg>
